HIERARCHY
ROOT Hips
{
	OFFSET -0.001795 -0.223333 0.028219
	CHANNELS 6 Xposition Yposition Zposition Zrotation Yrotation Xrotation 
	JOINT LeftUpLeg
	{
		OFFSET 0.069520 -0.091406 -0.006815
		CHANNELS 3 Zrotation Yrotation Xrotation
		JOINT LeftLeg
		{
			OFFSET 0.034277 -0.375199 -0.004496
			CHANNELS 3 Zrotation Yrotation Xrotation
			JOINT LeftFoot
			{
				OFFSET -0.013596 -0.397961 -0.043693
				CHANNELS 3 Zrotation Yrotation Xrotation
				JOINT LeftToe
				{
					OFFSET 0.026358 -0.055791 0.119288
					CHANNELS 3 Zrotation Yrotation Xrotation
					End Site
					{
						OFFSET 0.000000 0.000000 0.000000
					}
				}
			}
		}
	}
	JOINT RightUpLeg
	{
		OFFSET -0.067670 -0.090522 -0.004320
		CHANNELS 3 Zrotation Yrotation Xrotation
		JOINT RightLeg
		{
			OFFSET -0.038290 -0.382569 -0.008850
			CHANNELS 3 Zrotation Yrotation Xrotation
			JOINT RightFoot
			{
				OFFSET 0.015774 -0.398415 -0.042312
				CHANNELS 3 Zrotation Yrotation Xrotation
				JOINT RightToe
				{
					OFFSET -0.025372 -0.048144 0.123348
					CHANNELS 3 Zrotation Yrotation Xrotation
					End Site
					{
						OFFSET 0.000000 0.000000 0.000000
					}
				}
			}
		}
	}
	JOINT Spine
	{
		OFFSET -0.002533 0.108963 -0.026696
		CHANNELS 3 Zrotation Yrotation Xrotation
		JOINT Spine1
		{
			OFFSET 0.005487 0.135180 0.001092
			CHANNELS 3 Zrotation Yrotation Xrotation
			JOINT Spine2
			{
				OFFSET 0.001457 0.052922 0.025425
				CHANNELS 3 Zrotation Yrotation Xrotation
				JOINT Neck
				{
					OFFSET -0.002778 0.213870 -0.042857
					CHANNELS 3 Zrotation Yrotation Xrotation
					JOINT Head
					{
						OFFSET 0.005152 0.064970 0.051349
						CHANNELS 3 Zrotation Yrotation Xrotation
						End Site
						{
							OFFSET 0.000000 0.000000 0.000000
						}
					}
				}
				JOINT LeftShoulder
				{
					OFFSET 0.078845 0.121749 -0.034090
					CHANNELS 3 Zrotation Yrotation Xrotation
					JOINT LeftArm
					{
						OFFSET 0.090977 0.030469 -0.008868
						CHANNELS 3 Zrotation Yrotation Xrotation
						JOINT LeftForeArm
						{
							OFFSET 0.259612 -0.012772 -0.027456
							CHANNELS 3 Zrotation Yrotation Xrotation
							JOINT LeftHand
							{
								OFFSET 0.249234 0.008986 -0.001171
								CHANNELS 3 Zrotation Yrotation Xrotation
								End Site
								{
									OFFSET 0.000000 0.000000 0.000000
								}
							}
						}
					}
				}
				JOINT RightShoulder
				{
					OFFSET -0.081759 0.118833 -0.038615
					CHANNELS 3 Zrotation Yrotation Xrotation
					JOINT RightArm
					{
						OFFSET -0.096012 0.032551 -0.009143
						CHANNELS 3 Zrotation Yrotation Xrotation
						JOINT RightForeArm
						{
							OFFSET -0.253742 -0.013329 -0.021401
							CHANNELS 3 Zrotation Yrotation Xrotation
							JOINT RightHand
							{
								OFFSET -0.255298 0.007772 -0.005559
								CHANNELS 3 Zrotation Yrotation Xrotation
								End Site
								{
									OFFSET 0.000000 0.000000 0.000000
								}
							}
						}
					}
				}
			}
		}
	}
}
MOTION
Frames: 5
Frame Time: 0.050000
0.000000 0.715231 0.000000 -3.241180 -5.199020 -2.999154 8.942264 -0.012269 -19.189078 10.406274 -12.564165 86.034457 -6.779325 -26.673445 -11.492098 0.000000 0.000000 0.000000 -4.758337 2.923896 -35.920889 8.404121 -1.628717 83.502078 -2.006201 6.431762 -17.547535 0.000000 0.000000 0.000000 7.741546 -2.500299 25.297232 -8.292907 2.201617 -32.685440 0.763485 10.803880 29.372694 9.718445 -2.478778 -28.708590 0.000000 0.000000 0.000000 -12.587993 13.107199 -8.098698 -45.023673 21.646586 -15.003766 -19.563295 -45.186832 9.602597 0.000000 0.000000 0.000000 20.061686 -15.014221 -7.806674 51.209647 -8.885879 -11.324684 13.987662 43.895382 9.445132 0.000000 0.000000 0.000000 
0.003726 0.711580 -0.021708 -4.522676 -5.407434 -4.199167 7.470165 -0.262251 -20.521298 13.956917 -17.053189 87.400361 -4.075434 -22.480829 -14.596112 0.000000 0.000000 0.000000 -3.340635 3.675308 -38.654371 10.509146 -4.149842 85.974612 -3.141012 -3.702295 -10.394111 0.000000 0.000000 0.000000 8.950018 -2.959835 27.464699 -11.188151 2.545116 -35.616172 2.681968 10.779790 30.862773 9.138875 -2.128279 -29.204565 0.000000 0.000000 0.000000 -13.794751 9.997584 -6.830799 -46.297973 19.955978 -15.095984 -13.659429 -44.388227 7.161339 0.000000 0.000000 0.000000 20.569117 -15.301251 -8.007024 48.931024 -9.405166 -11.265351 16.423701 45.342207 10.803989 0.000000 0.000000 0.000000 
0.009232 0.709415 -0.043272 -3.488443 -5.316882 -5.493848 7.289812 -0.286755 -20.063111 14.787556 -17.573894 85.684980 -2.323026 -25.393220 -21.029136 0.000000 0.000000 0.000000 -5.213736 3.050380 -38.706241 12.006069 -5.919131 86.924165 -4.800267 -7.809034 -14.199638 0.000000 0.000000 0.000000 9.733751 -2.930058 25.940444 -13.427431 3.323178 -31.012105 0.870113 10.203725 29.407092 7.419436 -1.010414 -31.049631 0.000000 0.000000 0.000000 -17.915060 9.623551 -7.597212 -42.618652 17.642620 -12.847527 -9.042598 -47.116216 5.626626 0.000000 0.000000 0.000000 25.469622 -12.430972 -6.921781 45.958765 -8.028347 -10.455940 10.985837 48.130096 8.886100 0.000000 0.000000 0.000000 
0.016574 0.709253 -0.063594 -3.272391 -5.966430 -6.386454 5.449751 -0.615459 -20.783615 15.728813 -18.357276 86.428360 -0.625329 -24.556337 -24.683938 0.000000 0.000000 0.000000 -5.784333 2.919633 -38.315707 12.571390 -6.051485 86.346054 -5.556204 -9.037419 -18.346569 0.000000 0.000000 0.000000 9.465988 -2.977474 27.632644 -15.845466 3.407098 -35.094035 2.659377 10.191948 32.842649 5.359376 0.174709 -32.274294 0.000000 0.000000 0.000000 -18.871394 9.271184 -7.478186 -43.807964 15.212311 -12.786969 -3.962403 -47.630473 3.742496 0.000000 0.000000 0.000000 25.339573 -12.534726 -6.878352 45.188183 -7.466076 -10.534660 10.795766 49.194220 9.166475 0.000000 0.000000 0.000000 
0.025257 0.708153 -0.083291 -3.424355 -6.093732 -7.609286 5.561510 -0.607849 -22.241795 13.730565 -16.171931 86.629066 1.679141 -22.073270 -29.349150 0.000000 0.000000 0.000000 -6.438125 2.724661 -38.445108 12.619151 -6.057707 86.682485 -5.313697 -7.507003 -19.238803 0.000000 0.000000 0.000000 8.298614 -2.841970 29.495307 -15.265875 3.460336 -33.888387 2.192171 10.750515 31.416788 5.038712 0.488998 -32.397420 0.000000 0.000000 0.000000 -21.394223 8.949846 -8.128781 -41.650809 14.657955 -11.682418 -4.059055 -47.568363 3.583732 0.000000 0.000000 0.000000 25.061362 -12.264024 -6.604237 45.000091 -7.528404 -10.372340 8.856725 49.562674 8.308104 0.000000 0.000000 0.000000 
